<svg width="332" height="332" viewBox="0 0 332 332" fill="none" xmlns="http://www.w3.org/2000/svg">
<rect width="332" height="332" fill="black"/>
<path d="M120 132.8H139.2V110.8H120V69.6H98.4V110.8H75.6V132.8H97C92 156.4 81.8 184 70.8 199.8C74.2 205.4 79 214.6 81.2 221C87.6 211.4 93.4 198 98.4 183.2V256.2H120V171C124.2 179.6 128.4 188.8 130.6 194.6L142.2 178C139 172.8 125.6 151.2 120 143.2V132.8ZM206.8 225.2H190.6V213.4H206.8V225.2ZM254.6 174.6H143.2V256.4H164.8V192.2H232.6V234C232.6 236.2 231.8 236.8 229.4 237H223.8V200H173.8V246.4H190.6V238.6H213C215.2 243.8 217.8 251 218.6 256.2C230.8 256.2 239.4 256 246 252.8C252.8 249.4 254.6 244 254.6 234.4V174.6ZM211.4 153.8H185V143H211.4V153.8ZM207.8 119.8C209.6 123 211.6 126 213.6 129H184C186 126 188 123 189.8 119.8H207.8ZM256.6 119.8V101.8H198.2C199.2 98.6 200.4 95.4 201.2 92.2C217.8 90.8 233.6 88.8 246.6 86L233.4 70.6C212.2 75.4 175.8 78.2 144.8 79C147 83.2 149.2 90.2 149.6 94.4C158.8 94.4 168.8 94 178.8 93.6C177.8 96.4 176.8 99 175.6 101.8H141.6V119.8H165.2C157.6 129.4 147.6 138.4 134 145.6C138.6 148.4 145.2 155.8 148.2 161C154.6 157.4 160.2 153.2 165.4 149V168H232V149.8C237.2 154.4 242.6 158.4 248.2 161.4C251.4 156.2 257.8 148.6 262.6 144.6C250.2 139.2 238.2 130.2 229.6 119.8H256.6Z" fill="white"/>
</svg>
