<svg xmlns="http://www.w3.org/2000/svg" enable-background="new 0 0 1000 1000" viewBox="0 0 1000 1000"><rect width="1000" height="1000" fill="#6a737f"/><path fill="#444e59" d="M909.841,666.303H95.678c-4.971,0-9-4.029-9-9v0c0-4.971,4.029-9,9-9h814.162
	c4.971,0,9,4.029,9,9v0C918.841,662.273,914.811,666.303,909.841,666.303z"/><rect width="140.824" height="8.449" x="407.375" y="647.784" fill="#444e59"/><path fill="#bbbfc2" d="M646.043,592.862H313.757c-6.627,0-12-5.373-12-12V358.42c0-6.627,5.373-12,12-12
			h332.285c6.627,0,12,5.373,12,12v222.443C658.043,587.49,652.67,592.862,646.043,592.862z"/><rect width="181.663" height="312.63" x="389.772" y="303.468" fill="#28a8e0" transform="rotate(90 480.604 459.783)"/><path fill="#848484" d="M646.777 592.862h-52.105v-94.76c0-7.552 6.122-13.675 13.675-13.675h38.43V592.862zM327.072 501.326h-25.315v74.637c0 9.333 8.035 16.899 17.368 16.899h29.104v-70.038C348.229 511.186 338.71 501.326 327.072 501.326z" opacity=".4"/><path fill="none" stroke="#444e59" stroke-linecap="round" stroke-linejoin="round" stroke-miterlimit="10" stroke-width="4" d="
			M646.981,592.862H314.227c-6.627,0-12-5.373-12-12V358.42c0-6.627,5.373-12,12-12h332.755c6.627,0,12,5.373,12,12v222.443
			C658.981,587.49,653.609,592.862,646.981,592.862z"/><rect width="181.658" height="311.691" x="389.775" y="303.935" fill="none" stroke="#444e59" stroke-linecap="round" stroke-linejoin="round" stroke-miterlimit="10" stroke-width="4" transform="rotate(90 480.604 459.78)"/><path fill="#848484" d="M575.859,541.87H404.061c-3.891,0-7.045-3.154-7.045-7.045v-122.51
		c0-3.891,3.154-7.045,7.045-7.045h171.798c3.891,0,7.045,3.154,7.045,7.045v122.51C582.904,538.716,579.75,541.87,575.859,541.87z" opacity=".32"/><path fill="#afb1b2" d="M567.911,535.124H396.113c-3.891,0-7.045-3.154-7.045-7.045V405.57
		c0-3.891,3.154-7.045,7.045-7.045h171.798c3.891,0,7.045,3.154,7.045,7.045v122.51C574.956,531.97,571.802,535.124,567.911,535.124
		z"/><path fill="none" stroke="#444e59" stroke-linecap="round" stroke-linejoin="round" stroke-miterlimit="10" stroke-width="4" d="
		M567.911,535.124H396.113c-3.891,0-7.045-3.154-7.045-7.045V405.57c0-3.891,3.154-7.045,7.045-7.045h171.798
		c3.891,0,7.045,3.154,7.045,7.045v122.51C574.956,531.97,571.802,535.124,567.911,535.124z"/><polygon fill="#aeaeaf" points="522.464 647.784 438.744 647.784 449.111 592.862 512.097 592.862"/><polygon fill="#848484" points="514.924 608.353 512.097 592.862 449.111 592.862 446.284 608.353" opacity=".32"/><polygon fill="none" stroke="#444e59" stroke-linecap="round" stroke-linejoin="round" stroke-miterlimit="10" stroke-width="4" points="522.464 647.784 438.744 647.784 449.111 592.862 512.097 592.862"/><rect width="140.824" height="8.449" x="407.375" y="647.784" fill="none" stroke="#444e59" stroke-linecap="round" stroke-linejoin="round" stroke-miterlimit="10" stroke-width="4"/><circle cx="480.085" cy="567.72" r="6.24" fill="#444e59"/><path fill="#fff" d="M553.829,522.45H382.031c-3.891,0-7.045-3.154-7.045-7.045v-122.51
		c0-3.891,3.154-7.045,7.045-7.045h171.798c3.891,0,7.045,3.154,7.045,7.045v122.51C560.874,519.296,557.72,522.45,553.829,522.45z"/><path fill="none" stroke="#444e59" stroke-linecap="round" stroke-linejoin="round" stroke-miterlimit="10" stroke-width="4" d="
		M553.829,522.45H382.031c-3.891,0-7.045-3.154-7.045-7.045v-122.51c0-3.891,3.154-7.045,7.045-7.045h171.798
		c3.891,0,7.045,3.154,7.045,7.045v122.51C560.874,519.296,557.72,522.45,553.829,522.45z"/><path fill="#bbbfc2" d="M560.874,406.974H374.986v-13.773c0-4.043,3.308-7.35,7.35-7.35h171.666
		c3.795,0,6.872,3.077,6.872,6.872V406.974z"/><path fill="none" stroke="#444e59" stroke-linecap="round" stroke-linejoin="round" stroke-miterlimit="10" stroke-width="4" d="
		M560.874,406.974H374.986v-13.773c0-4.043,3.308-7.35,7.35-7.35h171.666c3.795,0,6.872,3.077,6.872,6.872V406.974z"/><circle cx="392.949" cy="396.528" r="3.282" fill="#444e59"/><circle cx="403.793" cy="396.528" r="3.282" fill="#444e59"/><circle cx="414.637" cy="396.528" r="3.282" fill="#444e59"/><path fill="#6567c3" d="M543.383,443.589H391.068c-1.105,0-2-0.895-2-2V420.24c0-1.105,0.895-2,2-2h152.315
		c1.105,0,2,0.895,2,2v21.348C545.383,442.693,544.488,443.589,543.383,443.589z"/><g><path fill="#444e59" d="M434.948,470.345h-43.88c-1.105,0-2-0.895-2-2v-11.491
			c0-1.105,0.895-2,2-2h43.88c1.105,0,2,0.895,2,2v11.491C436.948,469.45,436.053,470.345,434.948,470.345z" opacity=".2"/><line x1="396.109" x2="431.315" y1="481.611" y2="481.611" fill="none" stroke="#444e59" stroke-linecap="round" stroke-linejoin="round" stroke-miterlimit="10" stroke-width="4" opacity=".2"/><line x1="396.109" x2="431.315" y1="492.877" y2="492.877" fill="none" stroke="#444e59" stroke-linecap="round" stroke-linejoin="round" stroke-miterlimit="10" stroke-width="4" opacity=".2"/></g><g><path fill="#444e59" d="M489.87,470.345h-43.88c-1.105,0-2-0.895-2-2v-11.491
			c0-1.105,0.895-2,2-2h43.88c1.105,0,2,0.895,2,2v11.491C491.87,469.45,490.974,470.345,489.87,470.345z" opacity=".2"/><line x1="451.031" x2="484.829" y1="481.611" y2="481.611" fill="none" stroke="#444e59" stroke-linecap="round" stroke-linejoin="round" stroke-miterlimit="10" stroke-width="4" opacity=".2"/><line x1="451.031" x2="484.829" y1="492.877" y2="492.877" fill="none" stroke="#444e59" stroke-linecap="round" stroke-linejoin="round" stroke-miterlimit="10" stroke-width="4" opacity=".2"/></g><g opacity=".2"><path fill="#444e59" d="M544.791,494.285h-43.88c-1.105,0-2-0.895-2-2v-35.431c0-1.105,0.895-2,2-2h43.88
			c1.105,0,2,0.895,2,2v35.431C546.791,493.39,545.896,494.285,544.791,494.285z"/></g><g opacity=".09"><path fill="#444e59" d="M543.385,505.551h-41.842c-1.555,0-2.816-1.261-2.816-2.816
			s1.261-2.816,2.816-2.816h41.842c1.555,0,2.816,1.261,2.816,2.816S544.94,505.551,543.385,505.551z"/></g><g><path fill="#fff" d="M229.193,613.414h-80.63c-0.96,0-1.888,0.328-2.61,0.961l-19.458,17.048
			c-1.799,1.577-1.799,4.372,0,5.95l19.458,17.309c0.722,0.633,1.65,1.233,2.61,1.233h80.63c4.565,0,8.351-4.208,8.351-8.773
			v-25.504C237.544,617.073,233.758,613.414,229.193,613.414z M146.45,639.349c-2.739,0-4.959-2.22-4.959-4.959
			s2.22-4.959,4.959-4.959s4.959,2.22,4.959,4.959S149.189,639.349,146.45,639.349z"/><rect width="23.487" height="42.501" x="167.082" y="613.414" fill="#f09f54"/><rect width="23.487" height="42.501" x="190.569" y="613.414" fill="#ed8b3b"/><path fill="#ff6c37" d="M227.09,655.915h-13.034v-42.501h13.411c5.542,0,10.077,4.534,10.077,10.077v21.971
			C237.544,651.211,232.84,655.915,227.09,655.915z"/><path fill="#848484" d="M231.41,615.493c-0.398-0.059-0.802-0.078-1.217-0.078h-80.63
			c-0.96,0-1.888,0.328-2.61,0.961l-19.458,17.048c-1.799,1.577-1.799,4.372,0,5.95l12.153,10.651l13.209,3.343
			c0.649,0.165,1.317,0.247,1.986,0.247c1.273,0,2.545-0.306,3.678-0.884l71.823-36.634
			C230.713,615.908,231.068,615.712,231.41,615.493z M147.45,641.349c-2.739,0-4.959-2.22-4.959-4.959s2.22-4.959,4.959-4.959
			s4.959,2.22,4.959,4.959S150.189,641.349,147.45,641.349z" opacity=".4"/><path fill="none" stroke="#444e59" stroke-linecap="round" stroke-linejoin="round" stroke-miterlimit="10" stroke-width="4" d="
			M229.193,613.414h-80.63c-0.96,0-1.888,0.328-2.61,0.961l-19.458,17.048c-1.799,1.577-1.799,4.372,0,5.95l19.458,17.309
			c0.722,0.633,1.65,1.233,2.61,1.233h80.63c4.565,0,8.351-4.208,8.351-8.773v-25.504
			C237.544,617.073,233.758,613.414,229.193,613.414z M146.45,639.349c-2.739,0-4.959-2.22-4.959-4.959s2.22-4.959,4.959-4.959
			s4.959,2.22,4.959,4.959S149.189,639.349,146.45,639.349z"/><rect width="23.487" height="42.501" x="167.082" y="613.414" fill="none" stroke="#444e59" stroke-linecap="round" stroke-linejoin="round" stroke-miterlimit="10" stroke-width="4"/><rect width="23.487" height="42.501" x="190.569" y="613.414" fill="none" stroke="#444e59" stroke-linecap="round" stroke-linejoin="round" stroke-miterlimit="10" stroke-width="4"/><path fill="none" stroke="#444e59" stroke-linecap="round" stroke-linejoin="round" stroke-miterlimit="10" stroke-width="4" d="
			M227.09,655.915h-13.034v-42.501h13.411c5.542,0,10.077,4.534,10.077,10.077v21.971
			C237.544,651.211,232.84,655.915,227.09,655.915z"/><g><path fill="#fff" d="M208.361,572.961l-71.822,36.644c-0.855,0.436-1.523,1.169-1.879,2.061
			l-9.58,24.038c-0.886,2.223,0.387,4.717,2.706,5.304l25.084,6.352c0.931,0.236,1.916,0.125,2.772-0.311l71.822-36.644
			c4.066-2.075,5.681-7.053,3.606-11.119l-11.591-22.718C217.406,572.501,212.427,570.887,208.361,572.961z"/><rect width="23.484" height="42.035" x="182.156" y="582.918" fill="#8d91db" transform="rotate(-27.031 193.882 603.896)"/><path fill="none" stroke="#444e59" stroke-linecap="round" stroke-linejoin="round" stroke-miterlimit="10" stroke-width="4" d="
			M208.361,572.961l-71.822,36.644c-0.855,0.436-1.523,1.169-1.879,2.061l-9.58,24.038c-0.886,2.223,0.387,4.717,2.706,5.304
			l25.084,6.352c0.931,0.236,1.916,0.125,2.772-0.311l71.822-36.644c4.066-2.075,5.681-7.053,3.606-11.119l-11.591-22.718
			C217.406,572.501,212.427,570.887,208.361,572.961z"/><circle cx="144.208" cy="629.287" r="5.792" fill="#444e59"/><rect width="23.484" height="42.035" x="161.237" y="593.591" fill="#beccd5" stroke="#444e59" stroke-linecap="round" stroke-linejoin="round" stroke-miterlimit="10" stroke-width="4" transform="rotate(-27.031 172.965 614.568)"/><rect width="23.484" height="42.035" x="161.237" y="593.591" fill="none" stroke="#444e59" stroke-linecap="round" stroke-linejoin="round" stroke-miterlimit="10" stroke-width="4" transform="rotate(-27.031 172.965 614.568)"/><rect width="23.484" height="42.035" x="182.156" y="582.918" fill="none" stroke="#444e59" stroke-linecap="round" stroke-linejoin="round" stroke-miterlimit="10" stroke-width="4" transform="rotate(-27.031 193.882 603.896)"/><path fill="#6567c3" d="M225.92,611.193l-12.011,6.128l-19.104-37.443l12.011-6.128
			c4.92-2.51,10.942-0.557,13.452,4.363l10.014,19.628C232.793,602.66,230.839,608.683,225.92,611.193z"/><path fill="none" stroke="#444e59" stroke-linecap="round" stroke-linejoin="round" stroke-miterlimit="10" stroke-width="4" d="
			M225.92,611.193l-12.011,6.128l-19.104-37.443l12.011-6.128c4.92-2.51,10.942-0.557,13.452,4.363l10.014,19.628
			C232.793,602.66,230.839,608.683,225.92,611.193z"/></g></g><g><path fill="#fff" d="M326.963,656.233h-67.311c-5.523,0-10-4.477-10-10V511.326c0-5.523,4.477-10,10-10
		h67.311c5.523,0,10,4.477,10,10v134.907C336.963,651.756,332.486,656.233,326.963,656.233z"/><path fill="#6567c3" d="M338.371,547.799h-88.719v-36.692c0-5.401,4.379-9.78,9.78-9.78h68.602
		c5.685,0,10.337,4.652,10.337,10.337V547.799z"/><path fill="none" stroke="#444e59" stroke-linecap="round" stroke-linejoin="round" stroke-miterlimit="10" stroke-width="4" d="
		M326.963,656.233h-67.311c-5.523,0-10-4.477-10-10V511.326c0-5.523,4.477-10,10-10h67.311c5.523,0,10,4.477,10,10v134.907
		C336.963,651.756,332.486,656.233,326.963,656.233z"/><path fill="#bbbfc2" d="M327.072,656.233h-67.068c-5.694,0-10.352-4.658-10.352-10.352V626.66h87.311v19.682
		C336.963,651.805,332.535,656.233,327.072,656.233z"/><path fill="none" stroke="#444e59" stroke-linecap="round" stroke-linejoin="round" stroke-miterlimit="10" stroke-width="4" d="
		M327.272,656.233h-67.268c-5.694,0-10.352-4.658-10.352-10.352V626.66h87.311v19.882
		C336.963,651.894,332.624,656.233,327.272,656.233z"/><circle cx="294.022" cy="640.783" r="4.976" fill="#444e59"/><line x1="269.367" x2="318.656" y1="563.289" y2="563.289" fill="none" stroke="#444e59" stroke-linecap="round" stroke-linejoin="round" stroke-miterlimit="10" stroke-width="4" opacity=".3"/><line x1="279.225" x2="310.207" y1="578.78" y2="578.78" fill="none" stroke="#444e59" stroke-linecap="round" stroke-linejoin="round" stroke-miterlimit="10" stroke-width="4" opacity=".3"/><line x1="269.367" x2="318.656" y1="592.862" y2="592.862" fill="none" stroke="#444e59" stroke-linecap="round" stroke-linejoin="round" stroke-miterlimit="10" stroke-width="4" opacity=".3"/><circle cx="294.022" cy="528.109" r="11.203" fill="#fff" opacity=".62"/><path fill="#ed8b3b" d="M310.207,608.353c0,3.111-2.522,5.633-5.633,5.633H283.45
		c-3.111,0-5.633-2.522-5.633-5.633l0,0c0-3.111,2.522-5.633,5.633-5.633h21.124C307.685,602.72,310.207,605.242,310.207,608.353
		L310.207,608.353z"/></g><g><path fill="#bbbfc2" d="M848.155,637.926H605.938V492.25c0-4.32,3.502-7.823,7.823-7.823h226.83
		c4.178,0,7.566,3.387,7.566,7.566V637.926z"/><path fill="none" stroke="#444e59" stroke-linecap="round" stroke-linejoin="round" stroke-miterlimit="10" stroke-width="4" d="
		M848.767,638.18H606.55V492.178c0-4.418,3.582-8,8-8h226.217c4.418,0,8,3.582,8,8V638.18z"/><rect width="128.15" height="215.461" x="663.676" y="453.446" fill="#5d5d5d" opacity=".71" transform="rotate(90 727.75 561.177)"/><path fill="#848484" d="M672.728 600.919h-18.606c-1.084 0-1.963-.879-1.963-1.963v-63.67c0-1.084.879-1.963 1.963-1.963h18.606c1.084 0 1.963.879 1.963 1.963v63.67C674.691 600.04 673.812 600.919 672.728 600.919zM807.049 613.784H699.573c-2.209 0-4-1.791-4-4v-82.128c0-2.209 1.791-4 4-4h107.476c2.209 0 4 1.791 4 4v82.128C811.049 611.993 809.258 613.784 807.049 613.784z" opacity=".32"/><rect width="127.088" height="215.304" x="664.114" y="453.527" fill="none" stroke="#444e59" stroke-linecap="round" stroke-linejoin="round" stroke-miterlimit="10" stroke-width="4" transform="rotate(90 727.659 561.179)"/><path fill="#fff" d="M875.203,638.18H580.114v9.414c0,4.418,3.582,8,8,8h279.089c4.418,0,8-3.582,8-8
		V638.18z"/><path fill="#bbbfc2" d="M591.38,656.233h272.557c5.473,0,10.031-4.225,11.05-9.858H580.33
		C581.349,652.008,585.907,656.233,591.38,656.233z" opacity=".8"/><path fill="none" stroke="#444e59" stroke-linecap="round" stroke-linejoin="round" stroke-miterlimit="10" stroke-width="4" d="
		M875.203,638.18H580.114v9.414c0,4.418,3.582,8,8,8h279.089c4.418,0,8-3.582,8-8V638.18z"/><rect width="22.532" height="22.532" x="646.777" y="528.083" fill="#f09f54"/><rect width="22.532" height="22.532" x="647.159" y="528.323" fill="none" stroke="#444e59" stroke-linecap="round" stroke-linejoin="round" stroke-miterlimit="10" stroke-width="4"/><rect width="22.532" height="22.532" x="647.159" y="528.323" fill="none" stroke="#444e59" stroke-linecap="round" stroke-linejoin="round" stroke-miterlimit="10" stroke-width="4"/><rect width="22.532" height="22.532" x="646.777" y="550.615" fill="#8d91db"/><rect width="22.532" height="22.532" x="647.159" y="550.855" fill="none" stroke="#444e59" stroke-linecap="round" stroke-linejoin="round" stroke-miterlimit="10" stroke-width="4"/><rect width="22.532" height="22.532" x="646.777" y="573.147" fill="#6567c3"/><rect width="22.532" height="22.532" x="647.159" y="573.387" fill="none" stroke="#444e59" stroke-linecap="round" stroke-linejoin="round" stroke-miterlimit="10" stroke-width="4"/><path fill="#fff" d="M800.5,606.945H693.024c-2.209,0-4-1.791-4-4v-82.128c0-2.209,1.791-4,4-4H800.5
		c2.209,0,4,1.791,4,4v82.128C804.5,605.154,802.709,606.945,800.5,606.945z"/><path fill="none" stroke="#444e59" stroke-linecap="round" stroke-linejoin="round" stroke-miterlimit="10" stroke-width="4" d="
		M800.5,606.945H693.024c-2.209,0-4-1.791-4-4v-82.128c0-2.209,1.791-4,4-4H800.5c2.209,0,4,1.791,4,4v82.128
		C804.5,605.154,802.709,606.945,800.5,606.945z"/><g opacity=".3"><polyline fill="none" stroke="#444e59" stroke-linejoin="round" stroke-width="2" points="770.701 583.153 770.701 584.653 769.201 584.653"/><line x1="767.296" x2="725.379" y1="584.653" y2="584.653" fill="none" stroke="#444e59" stroke-dasharray="2.858 1.905" stroke-linejoin="round" stroke-width="2"/><polyline fill="none" stroke="#444e59" stroke-linejoin="round" stroke-width="2" points="724.426 584.653 722.926 584.653 722.926 583.153"/><line x1="722.926" x2="722.926" y1="581.15" y2="542.091" fill="none" stroke="#444e59" stroke-dasharray="3.005 2.003" stroke-linejoin="round" stroke-width="2"/><polyline fill="none" stroke="#444e59" stroke-linejoin="round" stroke-width="2" points="722.926 541.089 722.926 539.589 724.426 539.589"/><line x1="726.331" x2="768.249" y1="539.589" y2="539.589" fill="none" stroke="#444e59" stroke-dasharray="2.858 1.905" stroke-linejoin="round" stroke-width="2"/><polyline fill="none" stroke="#444e59" stroke-linejoin="round" stroke-width="2" points="769.201 539.589 770.701 539.589 770.701 541.089"/><line x1="770.701" x2="770.701" y1="543.092" y2="582.151" fill="none" stroke="#444e59" stroke-dasharray="3.005 2.003" stroke-linejoin="round" stroke-width="2"/></g><rect width="7.071" height="7.071" x="719.603" y="536.053" fill="#fff"/><rect width="7.041" height="7.041" x="719.301" y="535.828" fill="none" stroke="#444e59" stroke-linejoin="round" stroke-miterlimit="10"/><rect width="7.071" height="7.071" x="719.603" y="581.117" fill="#fff"/><rect width="7.041" height="7.041" x="719.301" y="580.892" fill="none" stroke="#444e59" stroke-linejoin="round" stroke-miterlimit="10"/><rect width="7.071" height="7.071" x="767.165" y="536.053" fill="#fff"/><rect width="7.041" height="7.041" x="767.181" y="535.828" fill="none" stroke="#444e59" stroke-linejoin="round" stroke-miterlimit="10"/><g><rect width="7.071" height="7.071" x="767.165" y="581.117" fill="#fff"/><rect width="7.041" height="7.041" x="767.181" y="580.892" fill="none" stroke="#444e59" stroke-linejoin="round" stroke-miterlimit="10"/></g><g><polygon fill="#fff" points="658.548 562.487 665.593 577.705 672.549 581.279 677.34 576.488 673.766 569.532"/><polygon fill="none" stroke="#444e59" stroke-linejoin="round" stroke-miterlimit="10" points="658.548 562.487 665.593 577.705 672.549 581.279 677.34 576.488 673.766 569.532"/><circle cx="667.452" cy="571.077" r="1.919" fill="#444e59"/><line x1="658.548" x2="666.423" y1="562.487" y2="570.362" fill="none" stroke="#444e59" stroke-linecap="round" stroke-linejoin="round" stroke-miterlimit="10"/><rect width="6.827" height="4.89" x="673.278" y="578.149" fill="#fff" transform="rotate(-45.001 676.688 580.604)"/><rect width="6.827" height="4.89" x="673.278" y="578.149" fill="none" stroke="#444e59" stroke-linejoin="round" stroke-miterlimit="10" transform="rotate(-45.001 676.688 580.604)"/></g></g></svg>